<?xml version="1.0" encoding="UTF-8" standalone="no"?>
<svg
   xmlns:dc="http://purl.org/dc/elements/1.1/"
   xmlns:cc="http://creativecommons.org/ns#"
   xmlns:rdf="http://www.w3.org/1999/02/22-rdf-syntax-ns#"
   xmlns:svg="http://www.w3.org/2000/svg"
   xmlns="http://www.w3.org/2000/svg"
   xmlns:sodipodi="http://sodipodi.sourceforge.net/DTD/sodipodi-0.dtd"
   xmlns:inkscape="http://www.inkscape.org/namespaces/inkscape"
   version="1.1"
   id="svg23"
   sodipodi:docname="dealer-chip.svg"
   width="31.549999"
   height="25.799999"
   inkscape:version="0.92.4 (5da689c313, 2019-01-14)">
  <metadata
     id="metadata27">
    <rdf:RDF>
      <cc:Work
         rdf:about="">
        <dc:format>image/svg+xml</dc:format>
        <dc:type
           rdf:resource="http://purl.org/dc/dcmitype/StillImage" />
        <dc:title></dc:title>
      </cc:Work>
    </rdf:RDF>
  </metadata>
  <sodipodi:namedview
     pagecolor="#ffffff"
     bordercolor="#666666"
     borderopacity="1"
     objecttolerance="10"
     gridtolerance="10"
     guidetolerance="10"
     inkscape:pageopacity="0"
     inkscape:pageshadow="2"
     inkscape:window-width="1920"
     inkscape:window-height="1017"
     id="namedview25"
     showgrid="false"
     inkscape:zoom="2.36"
     inkscape:cx="50"
     inkscape:cy="-24.2"
     inkscape:window-x="1912"
     inkscape:window-y="-8"
     inkscape:window-maximized="1"
     inkscape:current-layer="svg23" />
  <defs
     id="defs13">
    <linearGradient
       gradientUnits="userSpaceOnUse"
       x1="-819.20001"
       x2="819.20001"
       spreadMethod="pad"
       gradientTransform="matrix(0.01748657,0.00636292,0.00636292,-0.01748657,15.8,10.9)"
       id="gradient0">
      <stop
         offset="0.10588235294117647"
         stop-color="#CCCCCC"
         id="stop2" />
      <stop
         offset="0.41568627450980394"
         stop-color="#F2F2F2"
         id="stop4" />
      <stop
         offset="0.6392156862745098"
         stop-color="#FFFFFF"
         id="stop6" />
      <stop
         offset="0.9058823529411765"
         stop-color="#CCCCCC"
         id="stop8" />
      <stop
         offset="1"
         stop-color="#E6E6E6"
         id="stop10" />
    </linearGradient>
  </defs>
  <g
     id="g21">
    <path
       d="m 31.55,11.25 v 3.7 q 0,4.5 -4.6,7.7 Q 22.35,25.8 15.8,25.8 9.25,25.8 4.65,22.65 0,19.45 0,14.95 v -3.7 Q 0.05,7.2 4.7,5.75 8.05,4.7 15.8,4.7 q 7.75,0 11.1,1.05 4.6,1.45 4.65,5.5"
       id="path15"
       inkscape:connector-curvature="0"
       style="fill:#cccccc;stroke:none" />
    <path
       d="m 31.55,10.9 q 0,4.5 -4.6,7.7 -4.6,3.15 -11.15,3.15 Q 9.25,21.75 4.65,18.6 0,15.4 0,10.9 0,6.4 4.65,3.2 9.3,0 15.8,0 q 6.5,0 11.15,3.2 4.6,3.2 4.6,7.7"
       id="path17"
       inkscape:connector-curvature="0"
       style="fill:url(#gradient0);stroke:none" />
    <path
       d="M 20.8,14.4 14.65,16.35 5.9,8.5 11.85,6.55 Q 13.5,6 15.1,5.7 16.9,5.45 18.3,5.65 l 3,0.8 q 1.15,0.45 2.6,1.65 1,0.95 1.35,1.85 0.35,1 -0.2,1.95 -0.3,0.6 -1.55,1.4 l -2.7,1.1 m 0.9,-2.65 Q 22,11.3 21.7,10.7 L 20.45,9.15 18.55,7.85 16.8,7.4 14.85,7.5 12.1,8.3 l -1.45,0.45 5.8,5.25 4.3,-1.5 0.95,-0.75"
       id="path19"
       inkscape:connector-curvature="0"
       style="fill:#000000;stroke:none" />
  </g>
</svg>
