<?xml version="1.0" encoding="utf-8"?>
<!-- Generator: Adobe Illustrator 23.0.6, SVG Export Plug-In . SVG Version: 6.00 Build 0)  -->
<svg version="1.1"
	 id="svg23" xmlns:cc="http://creativecommons.org/ns#" xmlns:dc="http://purl.org/dc/elements/1.1/" xmlns:inkscape="http://www.inkscape.org/namespaces/inkscape" xmlns:rdf="http://www.w3.org/1999/02/22-rdf-syntax-ns#" xmlns:sodipodi="http://sodipodi.sourceforge.net/DTD/sodipodi-0.dtd" xmlns:svg="http://www.w3.org/2000/svg"
	 xmlns="http://www.w3.org/2000/svg" xmlns:xlink="http://www.w3.org/1999/xlink" x="0px" y="0px" viewBox="0 0 31.5 25.8"
	 style="enable-background:new 0 0 31.5 25.8;" xml:space="preserve">
<style type="text/css">
	.st0{fill:#FFE36C;}
	.st1{fill:url(#path17_1_);}
</style>
<sodipodi:namedview  bordercolor="#666666" borderopacity="1" gridtolerance="10" guidetolerance="10" id="namedview25" inkscape:current-layer="svg23" inkscape:cx="50" inkscape:cy="-24.2" inkscape:pageopacity="0" inkscape:pageshadow="2" inkscape:window-height="1017" inkscape:window-maximized="1" inkscape:window-width="1920" inkscape:window-x="1912" inkscape:window-y="-8" inkscape:zoom="2.36" objecttolerance="10" pagecolor="#ffffff" showgrid="false">
	</sodipodi:namedview>
<path id="path15" inkscape:connector-curvature="0" class="st0" d="M31.5,11.2v3.7c0,3-1.5,5.6-4.6,7.7c-3.1,2.1-6.8,3.1-11.1,3.1
	c-4.4,0-8.1-1-11.1-3.1C1.6,20.5,0,18,0,14.9v-3.7c0-2.7,1.6-4.5,4.7-5.5C6.9,5,10.6,4.7,15.8,4.7S24.7,5,26.9,5.8
	C30,6.7,31.5,8.6,31.5,11.2"/>
<linearGradient id="path17_1_" gradientUnits="userSpaceOnUse" x1="110433.5781" y1="39561.5938" x2="112071.9766" y2="39561.5938" gradientTransform="matrix(1.748657e-02 6.362920e-03 -6.362920e-03 1.748657e-02 -1677.8986 -1388.7991)">
	<stop  offset="0.1059" style="stop-color:#F9F06C"/>
	<stop  offset="0.4157" style="stop-color:#FEFCE5"/>
	<stop  offset="0.6392" style="stop-color:#FFFFFF"/>
	<stop  offset="0.9059" style="stop-color:#F8EE5C"/>
	<stop  offset="1" style="stop-color:#FFF9D4"/>
</linearGradient>
<path id="path17" inkscape:connector-curvature="0" class="st1" d="M31.5,10.9c0,3-1.5,5.6-4.6,7.7c-3.1,2.1-6.8,3.1-11.1,3.1
	c-4.4,0-8.1-1-11.1-3.1C1.6,16.5,0,13.9,0,10.9s1.6-5.6,4.7-7.7S11.5,0,15.8,0S23.9,1.1,27,3.2C30,5.3,31.6,7.9,31.5,10.9"/>
<path id="path19" inkscape:connector-curvature="0" d="M20.8,14.4l-6.1,2L5.9,8.5l6-1.9c1.1-0.4,2.2-0.7,3.2-0.9
	c1.2-0.2,2.3-0.2,3.2,0l3,0.8c0.8,0.3,1.6,0.9,2.6,1.7c0.7,0.6,1.1,1.2,1.4,1.9c0.2,0.7,0.2,1.3-0.2,1.9c-0.2,0.4-0.7,0.9-1.5,1.4
	L20.8,14.4 M21.7,11.8c0.2-0.3,0.2-0.7,0-1.1l-1.2-1.6l-1.9-1.3l-1.8-0.4l-1.9,0.1l-2.8,0.8l-1.4,0.4l5.8,5.2l4.3-1.5L21.7,11.8"/>
</svg>
